<svg   viewBox="0 0 14 14"   xmlns="http://www.w3.org/2000/svg">
<path d="M10.52 1.84671C10.52 1.01337 9.84 0.333374 9.00667 0.333374C8.17333 0.333374 7.5 1.01337 7.5 1.84671V3.36004H9.01333C9.84 3.35337 10.52 2.68004 10.52 1.84671Z" />
<path d="M6.23326 3.35337V1.84671C6.23326 1.01337 5.55992 0.333374 4.72659 0.333374C3.89326 0.333374 3.21326 1.01337 3.21326 1.84671C3.21326 2.68004 3.89326 3.36004 4.72659 3.36004L6.23326 3.35337Z" />
<path d="M6.23329 4.62H1.66663V7.33333H6.23329V4.62Z" />
<path d="M12.0333 4.62H7.5V7.33333H12.0333V4.62Z" />
<path d="M1.66663 13.5534H6.23329V13.5201V8.6001H1.66663V13.5534Z" />
<path d="M7.5 13.5201V13.5534H12.0267V8.6001H7.5V13.5201Z" />
</svg>
